<?xml version="1.0" encoding="UTF-8"?>
<svg id="Layer_1" xmlns="http://www.w3.org/2000/svg" version="1.1" viewBox="0 0 70.85 159.58">
  <!-- Generator: Adobe Illustrator 29.4.0, SVG Export Plug-In . SVG Version: 2.1.0 Build 152)  -->
  <defs>
    <style>
      .st0 {
        fill: #fff;
      }
    </style>
  </defs>
  <path class="st0" d="M52.85,86.06c-.4-3.99-2.16-7.16-5.29-9.52-3.12-2.35-7.06-3.53-11.79-3.53-3.34,0-6.27.57-8.81,1.71-2.53,1.14-4.52,2.73-5.95,4.75s-2.15,4.31-2.15,6.88c0,1.89.41,3.55,1.23,4.97.82,1.42,1.92,2.64,3.31,3.65,1.39,1.02,2.93,1.88,4.62,2.61s3.4,1.33,5.13,1.82l7.56,2.17c2.28.63,4.57,1.44,6.85,2.41,2.29.98,4.39,2.21,6.29,3.7,1.9,1.48,3.43,3.29,4.59,5.42,1.15,2.13,1.73,4.7,1.73,7.68,0,3.83-1,7.27-2.98,10.33-1.98,3.06-4.83,5.47-8.54,7.26-3.7,1.78-8.15,2.68-13.33,2.68-4.88,0-9.11-.81-12.7-2.43-3.59-1.62-6.42-3.87-8.47-6.74-2.06-2.87-3.21-6.2-3.47-9.98h6.72c.23,2.82,1.17,5.22,2.8,7.17,1.63,1.96,3.76,3.45,6.37,4.47,2.61,1.01,5.53,1.52,8.75,1.52,3.57,0,6.74-.6,9.53-1.8s4.99-2.88,6.58-5.04c1.59-2.16,2.4-4.67,2.4-7.54,0-2.42-.63-4.46-1.89-6.11s-3.01-3.03-5.26-4.15c-2.26-1.12-4.87-2.11-7.82-2.98l-8.58-2.52c-5.62-1.68-9.99-4-13.09-6.96-3.1-2.96-4.65-6.75-4.65-11.34,0-3.85,1.03-7.24,3.1-10.17,2.06-2.93,4.87-5.21,8.4-6.86s7.51-2.47,11.92-2.47,8.4.82,11.82,2.45c3.43,1.63,6.16,3.88,8.17,6.74s3.1,6.11,3.23,9.75h-6.33Z"/>
  <path class="st0" d="M0,48.21v-5.88h70.85v5.88h-32.15v111.37h-6.54V48.21H0Z"/>
  <path class="st0" d="M32.15,60.26V22.05h6.54v38.21"/>
  <path class="st0" d="M46.64,31.6c-.56,0-1.1-.03-1.58-.1l.93-6.54c1.29.18,4.63-.34,6.67-.79,4.58-2.02,5.51-6.36,4.83-9.78-.77-3.88-3.83-7.79-8.94-7.79-9.13,0-9.79,6.24-9.83,7.49v16.61h-6.61V14.03c0-.17.33-14.03,16.44-14.03,7.55,0,13.9,5.39,15.42,13.11,1.48,7.49-2.15,14.44-9.04,17.28l-.52.17c-.87.2-4.75,1.05-7.78,1.05Z"/>
</svg>